<svg version="1.1" xmlns="http://www.w3.org/2000/svg" viewBox="0 0 2031.6484375 305.5" width="4063.296875" height="611">
  <!-- svg-source:excalidraw -->
  
  <defs>
    <style class="style-fonts">
      @font-face {
        font-family: "Virgil";
        src: url("https://unpkg.com/@excalidraw/excalidraw@undefined/dist/excalidraw-assets/Virgil.woff2");
      }
      @font-face {
        font-family: "Cascadia";
        src: url("https://unpkg.com/@excalidraw/excalidraw@undefined/dist/excalidraw-assets/Cascadia.woff2");
      }
      @font-face {
        font-family: "Assistant";
        src: url("https://unpkg.com/@excalidraw/excalidraw@undefined/dist/excalidraw-assets/Assistant-Regular.woff2");
      }
    </style>
    
  </defs>
  <rect x="0" y="0" width="2031.6484375" height="305.5" fill="#ffffff"></rect><g stroke-linecap="round" transform="translate(10 86) rotate(0 86.1640625 22)"><path d="M-0.72 0.2 L172.04 1.25 L171.16 42.29 L1.77 44.86" stroke="none" stroke-width="0" fill="#4facfe"></path><path d="M0 0 C41.1 -0.08, 83.87 -1.73, 172.33 0 M0 0 C41.78 -0.8, 83.64 -0.57, 172.33 0 M172.33 0 C171.52 10.64, 170.52 22.46, 172.33 44 M172.33 0 C172.03 10.93, 171.8 22.4, 172.33 44 M172.33 44 C121.41 42.88, 68.48 44.07, 0 44 M172.33 44 C121.39 43.73, 71.66 43.36, 0 44 M0 44 C1.34 29.5, -1.27 16.07, 0 0 M0 44 C0.29 28.58, 0.26 13.03, 0 0" stroke="#333" stroke-width="2" fill="none"></path></g><g stroke-linecap="round" transform="translate(284.4765625 194.5) rotate(0 79.8828125 22)"><path d="M0.2 -0.29 L161.01 -1.16 L158.06 45.77 L0.86 45.78" stroke="none" stroke-width="0" fill="#f093fb"></path><path d="M0 0 C39.52 0.31, 76.5 -0.28, 159.77 0 M0 0 C46.24 0.21, 93.1 -0.73, 159.77 0 M159.77 0 C158.54 8.72, 158.16 19.67, 159.77 44 M159.77 0 C158.99 12.61, 159 26.26, 159.77 44 M159.77 44 C115.77 43.11, 72.69 44.21, 0 44 M159.77 44 C118.87 44.5, 77.16 43.87, 0 44 M0 44 C-0.22 26.43, 0.36 11.61, 0 0 M0 44 C-0.51 29.08, -0.87 12.84, 0 0" stroke="#333" stroke-width="2" fill="none"></path></g><g stroke-linecap="round" transform="translate(734.609375 241.5) rotate(0 91.28515625 22)"><path d="M-0.29 1.25 L181.41 -1.71 L184.35 44.86 L1.78 42.03" stroke="none" stroke-width="0" fill="#10b981"></path><path d="M0 0 C64.43 -1.57, 128.84 -0.97, 182.57 0 M0 0 C59.79 0.55, 117.93 0.04, 182.57 0 M182.57 0 C180.95 14.52, 181.67 32.88, 182.57 44 M182.57 0 C181.92 10.3, 182.42 21.42, 182.57 44 M182.57 44 C141.39 45.72, 102.53 43.42, 0 44 M182.57 44 C135.99 44.84, 87.95 45.57, 0 44 M0 44 C-1.3 33.49, 0.53 23.77, 0 0 M0 44 C0.26 27.43, -0.58 12.15, 0 0" stroke="#333" stroke-width="2" fill="none"></path></g><g stroke-linecap="round" transform="translate(1346.1328125 24.5) rotate(0 99.1328125 22)"><path d="M1.25 -1.16 L196.56 1.77 L199.13 45.78 L-1.97 43.85" stroke="none" stroke-width="0" fill="#ff6b6b"></path><path d="M0 0 C47.51 -0.6, 96.39 1.05, 198.27 0 M0 0 C65.5 -1.63, 130.65 -0.66, 198.27 0 M198.27 0 C195.99 11.3, 197.9 23.09, 198.27 44 M198.27 0 C197.51 11.91, 197.8 23.05, 198.27 44 M198.27 44 C136.29 42.69, 70.55 41.99, 0 44 M198.27 44 C142.72 45.81, 87.85 45.03, 0 44 M0 44 C0.21 28, 1.11 11.45, 0 0 M0 44 C-0.49 28.22, 0.2 13, 0 0" stroke="#333" stroke-width="2" fill="none"></path></g><g stroke-linecap="round" transform="translate(232.328125 71.5) rotate(0 132.03125 42.5)"><path d="M-1.16 -1.71 L265.84 0.86 L265.84 83.03 L-0.15 85.8" stroke="none" stroke-width="0" fill="#e3f2fd"></path><path d="M0 0 C90.02 0.67, 182.29 1.29, 264.06 0 M0 0 C68.7 -0.2, 138.35 0.14, 264.06 0 M264.06 0 C262.63 18.88, 262.34 37.23, 264.06 85 M264.06 0 C263.59 20.7, 262.8 42.05, 264.06 85 M264.06 85 C181.13 85.88, 97.73 86.23, 0 85 M264.06 85 C173.63 85.73, 82.44 85.78, 0 85 M0 85 C1.3 62.55, 1.66 39.11, 0 0 M0 85 C-0.76 61.54, -0.55 38.49, 0 0" stroke="#1976d2" stroke-width="1" fill="none"></path></g><g stroke-linecap="round" transform="translate(546.390625 133) rotate(0 279.50390625 22)"><path d="M-1.71 1.77 L559.87 1.78 L557.04 43.85 L0.8 44.4" stroke="none" stroke-width="0" fill="#fce4ec"></path><path d="M0 0 C151.2 1.52, 302.77 1.01, 559.01 0 M0 0 C206.99 0.81, 414.41 0.2, 559.01 0 M559.01 0 C558.56 8.79, 558.01 18.67, 559.01 44 M559.01 0 C558.55 10.07, 558.98 21.9, 559.01 44 M559.01 44 C424.88 43.55, 291.26 44.22, 0 44 M559.01 44 C345.94 44.18, 132.59 44.32, 0 44 M0 44 C0.98 34.1, 0.99 21.21, 0 0 M0 44 C0.36 28.55, 0.88 12.81, 0 0" stroke="#c2185b" stroke-width="1" fill="none"></path></g><g stroke-linecap="round" transform="translate(1155.3984375 251.5) rotate(0 289.8671875 22)"><path d="M1.77 0.86 L581.51 -1.97 L579.59 44.8 L0.4 44.45" stroke="none" stroke-width="0" fill="#e8f5e8"></path><path d="M0 0 C152 0.44, 303.31 0.75, 579.73 0 M0 0 C164.8 1.46, 328.7 1.26, 579.73 0 M579.73 0 C578.48 8.38, 578.48 16.85, 579.73 44 M579.73 0 C578.91 11.1, 579.86 21.19, 579.73 44 M579.73 44 C362.89 42.89, 147.04 43.7, 0 44 M579.73 44 C402.51 46.15, 225.66 45.63, 0 44 M0 44 C1.06 31.59, -0.65 18.1, 0 0 M0 44 C0.01 34.02, -0.42 21.94, 0 0" stroke="#388e3c" stroke-width="1" fill="none"></path></g><g stroke-linecap="round" transform="translate(1785.1328125 10) rotate(0 118.2578125 42.5)"><path d="M0.86 1.78 L234.55 -0.15 L237.31 85.4 L0.45 83.83" stroke="none" stroke-width="0" fill="#ffebee"></path><path d="M0 0 C57.43 -1.13, 115.01 -0.74, 236.52 0 M0 0 C65.35 -2.12, 130.48 -2.28, 236.52 0 M236.52 0 C235.93 21.07, 235.45 43.24, 236.52 85 M236.52 0 C236.52 25.45, 235.71 51.36, 236.52 85 M236.52 85 C166.55 84.92, 98.6 84.29, 0 85 M236.52 85 C161.89 83.63, 85.46 83.88, 0 85 M0 85 C0.59 55.2, 0.53 25.14, 0 0 M0 85 C0.54 61.96, -0.94 40.98, 0 0" stroke="#d32f2f" stroke-width="1" fill="none"></path></g><g stroke-linecap="round"><g transform="translate(118.704 130) rotate(0 80.2365 43.25)"><path d="M0.87 -0.47 C15.72 13.87, 63 71.95, 89.47 86.31 C115.94 100.66, 147.8 85.71, 159.7 85.69 M-0.39 -1.76 C14.38 12.74, 62.44 73.02, 88.97 87.74 C115.5 102.46, 146.69 86.68, 158.79 86.58" stroke="#1e1e1e" stroke-width="2" fill="none"></path></g><g transform="translate(118.704 130) rotate(0 80.2365 43.25)"><path d="M137.43 99.57 C142.85 97.13, 149.54 91.46, 158.79 86.58 M137.43 99.57 C141.52 95.85, 146.3 93.19, 158.79 86.58" stroke="#1e1e1e" stroke-width="2" fill="none"></path></g><g transform="translate(118.704 130) rotate(0 80.2365 43.25)"><path d="M134.08 82.8 C140.52 85.24, 148.19 84.47, 158.79 86.58 M134.08 82.8 C139.07 82.98, 144.63 84.23, 158.79 86.58" stroke="#1e1e1e" stroke-width="2" fill="none"></path></g></g><mask></mask><g stroke-linecap="round"><g transform="translate(437.863 238.5) rotate(0 145.72299999999998 12.5)"><path d="M0.03 0.85 C13.79 4.91, 34.98 20.55, 83.33 24.73 C131.68 28.9, 255.58 26, 290.14 25.89 M1.98 0.25 C15.54 4.46, 33.85 22.16, 82.28 26.12 C130.72 30.08, 257.86 24.25, 292.6 24.01" stroke="#1e1e1e" stroke-width="2" fill="none"></path></g><g transform="translate(437.863 238.5) rotate(0 145.72299999999998 12.5)"><path d="M269.34 33.15 C278.25 29.96, 283.91 25.98, 292.6 24.01 M269.34 33.15 C277.3 28.95, 286.36 26.48, 292.6 24.01" stroke="#1e1e1e" stroke-width="2" fill="none"></path></g><g transform="translate(437.863 238.5) rotate(0 145.72299999999998 12.5)"><path d="M268.9 16.06 C278.01 18.4, 283.81 19.95, 292.6 24.01 M268.9 16.06 C276.99 18.25, 286.21 22.18, 292.6 24.01" stroke="#1e1e1e" stroke-width="2" fill="none"></path></g></g><mask></mask><g stroke-linecap="round"><g transform="translate(909.633 241.5) rotate(0 240.10500000000002 -85.4425)"><path d="M1.35 -0.69 C37.95 -10.34, 140.62 -30.48, 220.49 -58.81 C300.37 -87.14, 437.55 -151.94, 480.6 -170.69 M0.34 -1.84 C36.72 -11.31, 139.41 -29.75, 219.4 -57.7 C299.39 -85.65, 437.11 -150.7, 480.3 -169.53" stroke="#1e1e1e" stroke-width="2" fill="none"></path></g><g transform="translate(909.633 241.5) rotate(0 240.10500000000002 -85.4425)"><path d="M462.39 -152.08 C468.07 -158.44, 472.97 -162.29, 480.3 -169.53 M462.39 -152.08 C466.48 -157.13, 472.35 -162.07, 480.3 -169.53" stroke="#1e1e1e" stroke-width="2" fill="none"></path></g><g transform="translate(909.633 241.5) rotate(0 240.10500000000002 -85.4425)"><path d="M455.37 -167.67 C463.31 -168.92, 470.54 -167.6, 480.3 -169.53 M455.37 -167.67 C461.26 -168.39, 469.06 -169.04, 480.3 -169.53" stroke="#1e1e1e" stroke-width="2" fill="none"></path></g></g><mask></mask><g stroke-linecap="round"><g transform="translate(1346.133 43.352) rotate(0 -605.6535 16.2145)"><path d="M-0.69 0.23 C-36.62 -0.99, -129.9 -4.63, -216.55 -5.97 C-303.19 -7.3, -419.02 -7.44, -520.54 -7.78 C-622.06 -8.12, -748.7 -8.16, -825.65 -8.01 C-902.6 -7.86, -929.95 -7, -982.25 -6.87 C-1034.55 -6.73, -1101.25 -14.78, -1139.45 -7.2 C-1177.65 0.39, -1199.46 30.91, -1211.45 38.65 M-2.26 -0.96 C-37.76 -2.58, -127.72 -6.62, -214.26 -7.62 C-300.79 -8.62, -419.53 -6.97, -521.47 -6.95 C-623.4 -6.94, -749.41 -7.59, -825.88 -7.51 C-902.35 -7.44, -928.22 -6.33, -980.31 -6.49 C-1032.39 -6.64, -1099.91 -16.27, -1138.38 -8.42 C-1176.85 -0.57, -1199.36 32.74, -1211.15 40.63" stroke="#1e1e1e" stroke-width="2" fill="none"></path></g><g transform="translate(1346.133 43.352) rotate(0 -605.6535 16.2145)"><path d="M-1199.68 18.42 C-1202.97 22.84, -1204.03 29.48, -1211.15 40.63 M-1199.68 18.42 C-1202.79 23.23, -1205.49 27.9, -1211.15 40.63" stroke="#1e1e1e" stroke-width="2" fill="none"></path></g><g transform="translate(1346.133 43.352) rotate(0 -605.6535 16.2145)"><path d="M-1188.08 30.99 C-1194.49 32.11, -1198.57 35.47, -1211.15 40.63 M-1188.08 30.99 C-1193.68 32.9, -1198.96 34.77, -1211.15 40.63" stroke="#1e1e1e" stroke-width="2" fill="none"></path></g></g><mask></mask><g stroke-linecap="round"><g transform="translate(182.328 108) rotate(0 22.349999999999994 0)"><path d="M0.37 -0.37 C7.66 -0.38, 37.37 -0.13, 44.61 -0.14" stroke="#1e1e1e" stroke-width="2.5" fill="none" stroke-dasharray="8 10"></path></g><g transform="translate(182.328 108) rotate(0 22.349999999999994 0)"><path d="M24.04 7.25 C31 5.27, 39.04 1.02, 44.61 -0.14" stroke="#1e1e1e" stroke-width="2.5" fill="none"></path></g><g transform="translate(182.328 108) rotate(0 22.349999999999994 0)"><path d="M24.11 -7.7 C31.03 -4.13, 39.05 -2.85, 44.61 -0.14" stroke="#1e1e1e" stroke-width="2.5" fill="none"></path></g></g><mask></mask><g stroke-linecap="round"><g transform="translate(420.533 194.5) rotate(0 60.278999999999996 -19.75)"><path d="M-0.31 0.89 C16.4 -5.81, 80.64 -33.51, 100.55 -40.43 C120.46 -47.36, 115.98 -40.81, 119.15 -40.66" stroke="#1e1e1e" stroke-width="2.5" fill="none" stroke-dasharray="8 10"></path></g><g transform="translate(420.533 194.5) rotate(0 60.278999999999996 -19.75)"><path d="M110.06 -43.75 C113.34 -43.05, 114.47 -42.66, 119.15 -40.66" stroke="#1e1e1e" stroke-width="2.5" fill="none"></path></g><g transform="translate(420.533 194.5) rotate(0 60.278999999999996 -19.75)"><path d="M114.17 -48.87 C116.28 -46.75, 116.23 -44.9, 119.15 -40.66" stroke="#1e1e1e" stroke-width="2.5" fill="none"></path></g></g><mask></mask><g stroke-linecap="round"><g transform="translate(917.18 266.498) rotate(0 116.459 3.5010000000000048)"><path d="M1.39 -0.3 C36.73 0.85, 173.97 4.96, 212.29 6.09 C250.6 7.23, 227.91 6.49, 231.26 6.53" stroke="#1e1e1e" stroke-width="2.5" fill="none" stroke-dasharray="8 10"></path></g><g transform="translate(917.18 266.498) rotate(0 116.459 3.5010000000000048)"><path d="M240.47 3.8 C237.65 3.88, 234.62 4.46, 231.26 6.53" stroke="#1e1e1e" stroke-width="2.5" fill="none"></path></g><g transform="translate(917.18 266.498) rotate(0 116.459 3.5010000000000048)"><path d="M240.06 10.36 C237.41 8.62, 234.48 7.37, 231.26 6.53" stroke="#1e1e1e" stroke-width="2.5" fill="none"></path></g></g><mask></mask><g stroke-linecap="round"><g transform="translate(1544.398 46.5) rotate(0 117.71750000000009 0)"><path d="M0.2 -0.93 C39.25 -1.27, 194.98 -1.31, 234.03 -1.16" stroke="#1e1e1e" stroke-width="2.5" fill="none" stroke-dasharray="8 10"></path></g><g transform="translate(1544.398 46.5) rotate(0 117.71750000000009 0)"><path d="M210.52 7.36 C214.37 3.93, 219.46 2.67, 234.03 -1.16" stroke="#1e1e1e" stroke-width="2.5" fill="none"></path></g><g transform="translate(1544.398 46.5) rotate(0 117.71750000000009 0)"><path d="M210.55 -9.74 C214.52 -9.2, 219.6 -6.48, 234.03 -1.16" stroke="#1e1e1e" stroke-width="2.5" fill="none"></path></g></g><mask></mask><g transform="translate(31.34412384033203 95.5) rotate(0 64.81993865966797 12.5)"><text x="64.81993865966797" y="0" font-family="Virgil, Segoe UI Emoji" font-size="20px" fill="#fff" text-anchor="middle" style="white-space: pre;" direction="ltr" dominant-baseline="text-before-edge">/plan-product</text></g><g transform="translate(301.8194351196289 204) rotate(0 62.539939880371094 12.5)"><text x="62.539939880371094" y="0" font-family="Virgil, Segoe UI Emoji" font-size="20px" fill="#fff" text-anchor="middle" style="white-space: pre;" direction="ltr" dominant-baseline="text-before-edge">/create-spec</text></g><g transform="translate(750.354606628418 251) rotate(0 75.53992462158203 12.5)"><text x="75.53992462158203" y="0" font-family="Virgil, Segoe UI Emoji" font-size="20px" fill="#fff" text-anchor="middle" style="white-space: pre;" direction="ltr" dominant-baseline="text-before-edge">/execute-tasks</text></g><g transform="translate(1362.7556915283203 34) rotate(0 82.50993347167969 12.5)"><text x="82.50993347167969" y="0" font-family="Virgil, Segoe UI Emoji" font-size="20px" fill="#fff" text-anchor="middle" style="white-space: pre;" direction="ltr" dominant-baseline="text-before-edge">Reflect &amp; Refine</text></g><g transform="translate(256.9894714355469 76.5) rotate(0 107.36990356445312 37.5)"><text x="107.36990356445312" y="0" font-family="Virgil, Segoe UI Emoji" font-size="20px" fill="#1976d2" text-anchor="middle" style="white-space: pre;" direction="ltr" dominant-baseline="text-before-edge">Review </text><text x="107.36990356445312" y="25" font-family="Virgil, Segoe UI Emoji" font-size="20px" fill="#1976d2" text-anchor="middle" style="white-space: pre;" direction="ltr" dominant-baseline="text-before-edge">mission.md&lt;br&gt;Update </text><text x="107.36990356445312" y="50" font-family="Virgil, Segoe UI Emoji" font-size="20px" fill="#1976d2" text-anchor="middle" style="white-space: pre;" direction="ltr" dominant-baseline="text-before-edge">tech-stack.md</text></g><g transform="translate(584.7047424316406 142.5) rotate(0 241.18978881835938 12.5)"><text x="241.18978881835938" y="0" font-family="Virgil, Segoe UI Emoji" font-size="20px" fill="#c2185b" text-anchor="middle" style="white-space: pre;" direction="ltr" dominant-baseline="text-before-edge">Apply refined standards - Use improved patterns</text></g><g transform="translate(1195.6958312988281 261) rotate(0 249.56979370117188 12.5)"><text x="249.56979370117188" y="0" font-family="Virgil, Segoe UI Emoji" font-size="20px" fill="#388e3c" text-anchor="middle" style="white-space: pre;" direction="ltr" dominant-baseline="text-before-edge">Implement with standards - Note what works/fails</text></g><g transform="translate(1792.4007186889648 15) rotate(0 110.98990631103516 37.5)"><text x="110.98990631103516" y="0" font-family="Virgil, Segoe UI Emoji" font-size="20px" fill="#d32f2f" text-anchor="middle" style="white-space: pre;" direction="ltr" dominant-baseline="text-before-edge">Update </text><text x="110.98990631103516" y="25" font-family="Virgil, Segoe UI Emoji" font-size="20px" fill="#d32f2f" text-anchor="middle" style="white-space: pre;" direction="ltr" dominant-baseline="text-before-edge">standards&lt;br&gt;Documen</text><text x="110.98990631103516" y="50" font-family="Virgil, Segoe UI Emoji" font-size="20px" fill="#d32f2f" text-anchor="middle" style="white-space: pre;" direction="ltr" dominant-baseline="text-before-edge">t in recaps</text></g></svg>