<svg version="1.1" xmlns="http://www.w3.org/2000/svg" viewBox="0 0 715.781955961782 669.53125" width="1431.563911923564" height="1339.0625">
  <!-- svg-source:excalidraw -->
  
  <defs>
    <style class="style-fonts">
      @font-face {
        font-family: "Virgil";
        src: url("https://unpkg.com/@excalidraw/excalidraw@undefined/dist/excalidraw-assets/Virgil.woff2");
      }
      @font-face {
        font-family: "Cascadia";
        src: url("https://unpkg.com/@excalidraw/excalidraw@undefined/dist/excalidraw-assets/Cascadia.woff2");
      }
      @font-face {
        font-family: "Assistant";
        src: url("https://unpkg.com/@excalidraw/excalidraw@undefined/dist/excalidraw-assets/Assistant-Regular.woff2");
      }
    </style>
    
  </defs>
  <rect x="0" y="0" width="715.781955961782" height="669.53125" fill="#fafafa"></rect><g stroke-linecap="round" transform="translate(425.81640625 10) rotate(0 115.33203125 22)"><path d="M-1.45 1.26 L229.07 0.59 L230.96 45.37 L0.4 44.52" stroke="none" stroke-width="0" fill="#4facfe"></path><path d="M0 0 C82.21 0.4, 167.51 0.59, 230.66 0 M0 0 C79.15 -0.42, 158.52 -0.88, 230.66 0 M230.66 0 C231.44 13.57, 232.64 24.23, 230.66 44 M230.66 0 C231.24 14.32, 229.84 27.42, 230.66 44 M230.66 44 C163.11 44.79, 96.39 44.02, 0 44 M230.66 44 C142.32 43.32, 53.78 43.17, 0 44 M0 44 C1.94 25.83, 2.37 10.92, 0 0 M0 44 C0.44 33.91, -0.2 23.59, 0 0" stroke="#333" stroke-width="2" fill="none"></path></g><g stroke-linecap="round" transform="translate(280.515625 104) rotate(0 106.3984375 22)"><path d="M0 0 C62.8 1.86, 124.97 2.31, 212.8 0 M0 0 C44.81 0.25, 88.83 0.02, 212.8 0 M212.8 0 C214.78 16.18, 213.64 29.04, 212.8 44 M212.8 0 C213.28 9.29, 212.26 19.44, 212.8 44 M212.8 44 C161.13 43.07, 107.11 44.83, 0 44 M212.8 44 C159.73 43.27, 105.82 44.44, 0 44 M0 44 C-1.58 36.56, 0.31 23.97, 0 0 M0 44 C0.14 29.23, 0.43 13.83, 0 0" stroke="#1e1e1e" stroke-width="2" fill="none"></path></g><g stroke-linecap="round" transform="translate(250.1484375 198) rotate(0 136.765625 136.765625)"><path d="M135.41 0.59 L273.83 138.37 L137.4 274.05 L-1.84 137.27" stroke="none" stroke-width="0" fill="#f093fb" fill-rule="evenodd"></path><path d="M137 0 C180.02 44.47, 224.33 85.42, 273.53 137 M137 0 C182.67 45.45, 228.38 92.01, 273.53 137 M273.53 137 C228.04 186.64, 178.78 232.27, 137 273.53 M273.53 137 C224.3 186.44, 174.69 236.76, 137 273.53 M137 273.53 C101.04 239.7, 66.99 201.95, 0 137 M137 273.53 C104.97 243.59, 74.57 210.51, 0 137 M0 137 C48.66 90.72, 93.25 43.14, 137 0 M0 137 C52.32 83.92, 104.83 30.55, 137 0" stroke="#333" stroke-width="2" fill="none"></path></g><g stroke-linecap="round" transform="translate(10 521.53125) rotate(0 106.421875 22)"><path d="M0 0 C47.37 0.43, 91.08 0.31, 212.84 0 M0 0 C60.24 -0.16, 121.04 0.56, 212.84 0 M212.84 0 C213.85 15.09, 211.67 30.66, 212.84 44 M212.84 0 C212.1 17.13, 212.43 34.09, 212.84 44 M212.84 44 C156.79 45.12, 98.37 42.47, 0 44 M212.84 44 C152.67 43.76, 90.69 43.47, 0 44 M0 44 C0.82 26.19, 0.99 12.49, 0 0 M0 44 C0.59 27.48, 0.4 11.62, 0 0" stroke="#1e1e1e" stroke-width="2" fill="none"></path></g><g stroke-linecap="round" transform="translate(272.84375 521.53125) rotate(0 114.0703125 22)"><path d="M0 0 C80 -2.7, 159.13 -1.42, 228.14 0 M0 0 C76.23 0.58, 153.42 0.65, 228.14 0 M228.14 0 C228.97 15.52, 229.88 35.99, 228.14 44 M228.14 0 C227.83 13.55, 227.56 27.77, 228.14 44 M228.14 44 C140.77 44.04, 49.41 44.6, 0 44 M228.14 44 C142.62 44.44, 56.11 45.84, 0 44 M0 44 C-1.61 34.51, 1.33 24.81, 0 0 M0 44 C-0.71 29.1, -0.78 13.25, 0 0" stroke="#1e1e1e" stroke-width="2" fill="none"></path></g><g stroke-linecap="round" transform="translate(550.984375 521.53125) rotate(0 54.69921875 22)"><path d="M0 0 C32.98 0.25, 69.27 0.23, 109.4 0 M0 0 C32.38 0.85, 64.59 1.23, 109.4 0 M109.4 0 C107.97 18.63, 111.37 35, 109.4 44 M109.4 0 C108.54 10.72, 108.7 23.07, 109.4 44 M109.4 44 C77.56 43.53, 47.33 46.46, 0 44 M109.4 44 C81.33 45.38, 55.76 44.21, 0 44 M0 44 C0.58 28.19, 1.06 9.9, 0 0 M0 44 C0.27 30.21, -0.07 18.16, 0 0" stroke="#1e1e1e" stroke-width="2" fill="none"></path></g><g stroke-linecap="round" transform="translate(327.140625 615.53125) rotate(0 128.125 22)"><path d="M0.4 0.52 L254.41 0.27 L256.4 42.27 L-0.06 45.76" stroke="none" stroke-width="0" fill="#10b981"></path><path d="M0 0 C92.54 1.62, 184.46 1.78, 256.25 0 M0 0 C72.48 -0.25, 144.87 0.23, 256.25 0 M256.25 0 C257.67 16.4, 256.73 28.17, 256.25 44 M256.25 0 C255.84 9.23, 257.1 18.95, 256.25 44 M256.25 44 C167.05 42.78, 81.32 42.19, 0 44 M256.25 44 C164.3 42.86, 71.01 43.03, 0 44 M0 44 C2.02 30.83, 1.32 15.2, 0 0 M0 44 C-0.48 27.49, 0.47 11.07, 0 0" stroke="#333" stroke-width="2" fill="none"></path></g><g stroke-linecap="round"><g transform="translate(468.954 54) rotate(0 -41.02000000000001 22.35)"><path d="M0.44 0.31 C-13.25 4.56, -67.83 17.67, -81.62 24.92 C-95.4 32.18, -82.24 40.51, -82.26 43.82 M-0.79 -0.84 C-14.65 3.7, -68.62 18.79, -82.34 26.42 C-96.07 34.05, -83.32 42.25, -83.15 44.94" stroke="#1e1e1e" stroke-width="2" fill="none"></path></g><g transform="translate(468.954 54) rotate(0 -41.02000000000001 22.35)"><path d="M-90.88 39.25 C-88.43 41.52, -85.68 42.95, -83.15 44.94 M-90.88 39.25 C-88.63 41.16, -86.27 42.41, -83.15 44.94" stroke="#1e1e1e" stroke-width="2" fill="none"></path></g><g transform="translate(468.954 54) rotate(0 -41.02000000000001 22.35)"><path d="M-85.42 35.61 C-84.88 39.15, -84 41.83, -83.15 44.94 M-85.42 35.61 C-84.63 38.52, -83.73 40.75, -83.15 44.94" stroke="#1e1e1e" stroke-width="2" fill="none"></path></g></g><mask></mask><g stroke-linecap="round"><g transform="translate(386.914 148) rotate(0 0.1980000000000075 22.600499999999997)"><path d="M0.41 0.69 C0.41 4.73, 0.08 17.54, -0.03 24.9 C-0.15 32.25, -0.31 41.51, -0.28 44.84 M-0.3 0.32 C-0.34 4.42, -0.41 18.01, -0.48 25.54 C-0.55 33.08, -0.87 42.19, -0.72 45.51" stroke="#1e1e1e" stroke-width="2" fill="none"></path></g><g transform="translate(386.914 148) rotate(0 0.1980000000000075 22.600499999999997)"><path d="M-4.15 36.28 C-3.24 38.18, -2.79 39.99, -0.72 45.51 M-4.15 36.28 C-2.79 39.5, -1.82 42.33, -0.72 45.51" stroke="#1e1e1e" stroke-width="2" fill="none"></path></g><g transform="translate(386.914 148) rotate(0 0.1980000000000075 22.600499999999997)"><path d="M2.59 36.23 C2.09 38.14, 1.13 39.95, -0.72 45.51 M2.59 36.23 C1.75 39.48, 0.54 42.33, -0.72 45.51" stroke="#1e1e1e" stroke-width="2" fill="none"></path></g></g><mask></mask><g stroke-linecap="round"><g transform="translate(301.831 386.448) rotate(0 -92.70450000000001 64.89150000000001)"><path d="M0.42 0.42 C-30.59 18.66, -154.71 88.13, -185.63 109.7 C-216.56 131.28, -185.21 126.45, -185.11 129.89 M-0.81 -0.66 C-32.04 17.76, -155.88 89.62, -186.7 111.04 C-217.52 132.46, -186.07 124.98, -185.71 127.86" stroke="#1e1e1e" stroke-width="2" fill="none"></path></g><g transform="translate(301.831 386.448) rotate(0 -92.70450000000001 64.89150000000001)"><path d="M-195.1 129.88 C-192 128.99, -189.08 128.73, -185.71 127.86 M-195.1 129.88 C-191.37 129.24, -188.43 128.01, -185.71 127.86" stroke="#1e1e1e" stroke-width="2" fill="none"></path></g><g transform="translate(301.831 386.448) rotate(0 -92.70450000000001 64.89150000000001)"><path d="M-194.2 123.37 C-191.41 124.67, -188.8 126.61, -185.71 127.86 M-194.2 123.37 C-190.76 125.02, -188.14 126.07, -185.71 127.86" stroke="#1e1e1e" stroke-width="2" fill="none"></path></g></g><mask></mask><g stroke-linecap="round"><g transform="translate(387.414 472.031) rotate(0 -0.25 22.099999999999994)"><path d="M-0.03 0.4 C-0.13 4.39, -0.64 17.39, -0.67 24.64 C-0.71 31.89, -0.33 40.62, -0.22 43.88 M-0.72 -0.13 C-0.89 3.67, -1.24 16.57, -1.19 23.74 C-1.15 30.92, -0.41 39.65, -0.43 42.91" stroke="#1e1e1e" stroke-width="2" fill="none"></path></g><g transform="translate(387.414 472.031) rotate(0 -0.25 22.099999999999994)"><path d="M-4.03 34.01 C-3.08 36.39, -1.85 39.31, -0.43 42.91 M-4.03 34.01 C-2.71 37.01, -1.78 40.09, -0.43 42.91" stroke="#1e1e1e" stroke-width="2" fill="none"></path></g><g transform="translate(387.414 472.031) rotate(0 -0.25 22.099999999999994)"><path d="M2.54 33.78 C1.62 36.22, 0.99 39.2, -0.43 42.91 M2.54 33.78 C1.66 36.89, 0.41 40.04, -0.43 42.91" stroke="#1e1e1e" stroke-width="2" fill="none"></path></g></g><mask></mask><g stroke-linecap="round"><g transform="translate(466.041 393.405) rotate(0 69.82149999999999 61.41300000000001)"><path d="M-0.22 0.12 C23.03 17.34, 116.57 83.18, 139.95 103.73 C163.32 124.27, 139.91 120.22, 140.04 123.38 M-1.8 -1.13 C21.28 15.75, 115.61 81.47, 139.16 101.92 C162.71 122.38, 139.69 117.92, 139.49 121.6" stroke="#1e1e1e" stroke-width="2" fill="none"></path></g><g transform="translate(466.041 393.405) rotate(0 69.82149999999999 61.41300000000001)"><path d="M146.37 114.91 C143.76 117.38, 142.23 119.7, 139.49 121.6 M146.37 114.91 C143.86 117.15, 141.41 120.56, 139.49 121.6" stroke="#1e1e1e" stroke-width="2" fill="none"></path></g><g transform="translate(466.041 393.405) rotate(0 69.82149999999999 61.41300000000001)"><path d="M149.06 120.9 C145.55 121.36, 143.12 121.67, 139.49 121.6 M149.06 120.9 C145.45 120.82, 141.95 121.91, 139.49 121.6" stroke="#1e1e1e" stroke-width="2" fill="none"></path></g></g><mask></mask><g stroke-linecap="round"><g transform="translate(116.422 565.531) rotate(0 102.48450000000001 26.75)"><path d="M0.12 0.8 C0.15 4.99, -33.72 16.51, 0.6 25.4 C34.92 34.29, 171.9 49.48, 206.03 54.12 M2.12 -0.08 C2.05 3.75, -33.98 14.75, -0.03 23.49 C33.92 32.23, 171.51 47.2, 205.82 52.37" stroke="#1e1e1e" stroke-width="2" fill="none"></path></g><g transform="translate(116.422 565.531) rotate(0 102.48450000000001 26.75)"><path d="M181.42 57.84 C189.1 57.31, 196.43 56.46, 205.82 52.37 M181.42 57.84 C190.22 56.3, 201.51 53.67, 205.82 52.37" stroke="#1e1e1e" stroke-width="2" fill="none"></path></g><g transform="translate(116.422 565.531) rotate(0 102.48450000000001 26.75)"><path d="M183.61 40.88 C190.62 45.33, 197.3 49.46, 205.82 52.37 M183.61 40.88 C191.6 46.01, 202.03 50.06, 205.82 52.37" stroke="#1e1e1e" stroke-width="2" fill="none"></path></g></g><mask></mask><g stroke-linecap="round"><g transform="translate(386.914 565.531) rotate(0 15.745000000000005 23.498500000000035)"><path d="M0.8 1.1 C0.82 5.43, -4.9 18.43, 0.4 26.06 C5.7 33.69, 27.39 43.62, 32.61 46.87 M-0.5 0.37 C-0.58 4.42, -5.83 17.1, -0.34 24.49 C5.15 31.88, 27.02 41.11, 32.43 44.72" stroke="#1e1e1e" stroke-width="2" fill="none"></path></g><g transform="translate(386.914 565.531) rotate(0 15.745000000000005 23.498500000000035)"><path d="M13.58 41.92 C19.83 43.3, 25.86 45.23, 32.43 44.72 M13.58 41.92 C20.46 43.87, 26.25 43.46, 32.43 44.72" stroke="#1e1e1e" stroke-width="2" fill="none"></path></g><g transform="translate(386.914 565.531) rotate(0 15.745000000000005 23.498500000000035)"><path d="M19.79 30.45 C24.26 35.07, 28.54 40.23, 32.43 44.72 M19.79 30.45 C24.64 36.15, 28.37 39.54, 32.43 44.72" stroke="#1e1e1e" stroke-width="2" fill="none"></path></g></g><mask></mask><g stroke-linecap="round"><g transform="translate(605.684 565.531) rotate(0 -37.22550000000001 24.210000000000036)"><path d="M0.1 0.9 C0.43 5.12, 13.42 18.24, 1.06 26.12 C-11.31 34, -61.34 44.41, -74.08 48.17 M-1.04 0.06 C-0.75 3.95, 12.93 16.33, 0.66 24.59 C-11.6 32.85, -61.93 45.96, -74.65 49.62" stroke="#1e1e1e" stroke-width="2" fill="none"></path></g><g transform="translate(605.684 565.531) rotate(0 -37.22550000000001 24.210000000000036)"><path d="M-54.32 35.07 C-59.07 40.84, -63.33 43.6, -74.65 49.62 M-54.32 35.07 C-60.05 40.07, -67.97 43.72, -74.65 49.62" stroke="#1e1e1e" stroke-width="2" fill="none"></path></g><g transform="translate(605.684 565.531) rotate(0 -37.22550000000001 24.210000000000036)"><path d="M-49.72 51.54 C-55.75 52.91, -61.24 51.26, -74.65 49.62 M-49.72 51.54 C-56.79 51.28, -66.19 49.65, -74.65 49.62" stroke="#1e1e1e" stroke-width="2" fill="none"></path></g></g><mask></mask><g stroke-linecap="round"><g transform="translate(567.661 615.531) rotate(0 63.61100000000005 -279.993)"><path d="M-0.1 0.56 C21.41 -3.56, 107.5 -12.38, 128.84 -24.63 C150.19 -36.88, 128.03 -57.39, 127.97 -72.94 C127.92 -88.48, 128.52 -83.17, 128.52 -117.9 C128.51 -152.63, 128.25 -227.22, 127.95 -281.34 C127.66 -335.47, 126.87 -407.87, 126.73 -442.65 C126.59 -477.42, 127.02 -474.5, 127.12 -489.97 C127.22 -505.44, 140.01 -523.96, 127.33 -535.46 C114.65 -546.96, 63.55 -554.86, 51.04 -558.96 M-1.35 0.07 C20.07 -4.48, 107.03 -14.52, 128.48 -26.55 C149.93 -38.58, 127.22 -56.56, 127.34 -72.11 C127.46 -87.66, 129.3 -85.02, 129.18 -119.88 C129.06 -154.74, 126.86 -227.28, 126.6 -281.25 C126.34 -335.23, 127.48 -409.31, 127.62 -443.75 C127.76 -478.19, 127.71 -472.64, 127.45 -487.89 C127.2 -503.14, 138.51 -523.21, 126.09 -535.24 C113.67 -547.27, 65.62 -555.81, 52.92 -560.07" stroke="#1e1e1e" stroke-width="2" fill="none"></path></g><g transform="translate(567.661 615.531) rotate(0 63.61100000000005 -279.993)"><path d="M77.81 -562.42 C71.48 -559.7, 62.25 -560.39, 52.92 -560.07 M77.81 -562.42 C72.49 -562.15, 65.94 -561.24, 52.92 -560.07" stroke="#1e1e1e" stroke-width="2" fill="none"></path></g><g transform="translate(567.661 615.531) rotate(0 63.61100000000005 -279.993)"><path d="M73.49 -545.87 C68.49 -548.55, 60.66 -554.62, 52.92 -560.07 M73.49 -545.87 C69.02 -549.31, 63.44 -552.08, 52.92 -560.07" stroke="#1e1e1e" stroke-width="2" fill="none"></path></g></g><mask></mask><g transform="translate(447.2085189819336 19.5) rotate(0 93.9399185180664 12.5)"><text x="93.9399185180664" y="0" font-family="Virgil, Segoe UI Emoji" font-size="20px" fill="#fff" text-anchor="middle" style="white-space: pre;" direction="ltr" dominant-baseline="text-before-edge">Build Feature/Spec</text></g><g transform="translate(297.4341278076172 113.5) rotate(0 89.47993469238281 12.5)"><text x="89.47993469238281" y="0" font-family="Virgil, Segoe UI Emoji" font-size="20px" fill="#1e1e1e" text-anchor="middle" style="white-space: pre;" direction="ltr" dominant-baseline="text-before-edge">Reflect &amp; Analyze</text></g><g transform="translate(327.18128967285156 309.8828125) rotate(0 59.84996032714844 25)"><text x="59.84996032714844" y="0" font-family="Virgil, Segoe UI Emoji" font-size="20px" fill="#fff" text-anchor="middle" style="white-space: pre;" direction="ltr" dominant-baseline="text-before-edge">What did we</text><text x="59.84996032714844" y="25" font-family="Virgil, Segoe UI Emoji" font-size="20px" fill="#fff" text-anchor="middle" style="white-space: pre;" direction="ltr" dominant-baseline="text-before-edge">learn?</text></g><g transform="translate(25.021942138671875 531.03125) rotate(0 91.39993286132812 12.5)"><text x="91.39993286132812" y="0" font-family="Virgil, Segoe UI Emoji" font-size="20px" fill="#1e1e1e" text-anchor="middle" style="white-space: pre;" direction="ltr" dominant-baseline="text-before-edge">Update Standards</text></g><g transform="translate(291.3041458129883 531.03125) rotate(0 95.60991668701172 12.5)"><text x="95.60991668701172" y="0" font-family="Virgil, Segoe UI Emoji" font-size="20px" fill="#1e1e1e" text-anchor="middle" style="white-space: pre;" direction="ltr" dominant-baseline="text-before-edge">Document Patterns</text></g><g transform="translate(562.213623046875 531.03125) rotate(0 43.469970703125 12.5)"><text x="43.469970703125" y="0" font-family="Virgil, Segoe UI Emoji" font-size="20px" fill="#1e1e1e" text-anchor="middle" style="white-space: pre;" direction="ltr" dominant-baseline="text-before-edge">Fix Gaps</text></g><g transform="translate(346.2857208251953 625.03125) rotate(0 108.97990417480469 12.5)"><text x="108.97990417480469" y="0" font-family="Virgil, Segoe UI Emoji" font-size="20px" fill="#fff" text-anchor="middle" style="white-space: pre;" direction="ltr" dominant-baseline="text-before-edge">Apply to Next Project</text></g></svg>